<?xml version="1.0" encoding="UTF-8" standalone="no"?>
<svg xmlns="http://www.w3.org/2000/svg" version="1.2" baseProfile="tiny" viewBox="0 0 500 500">
<g stroke-width="2.00" fill="none" stroke-linecap="butt">
<path stroke="#979797" vector-effect="non-scaling-stroke" d="
  M 291.50 110.33
  L 291.50 182.50
  A 0.50 0.50 0.0 0 0 292.00 183.00
  L 331.84 183.00
  Q 333.17 183.00 333.17 181.66
  L 333.28 38.01
  Q 333.28 37.50 332.76 37.50
  L 299.72 37.50
  Q 299.08 37.50 298.72 38.02
  L 250.24 106.35
  A 0.28 0.27 -44.6 0 1 249.79 106.35
  L 201.39 37.84
  Q 201.16 37.50 200.74 37.50
  L 167.42 37.50
  Q 166.90 37.50 166.90 38.02
  L 166.88 182.31
  Q 166.88 183.00 167.56 183.00
  L 208.00 183.00
  Q 208.50 183.00 208.50 182.50
  L 208.50 109.99
  Q 208.50 109.34 208.88 109.87
  L 236.19 148.08
  Q 236.50 148.50 237.02 148.50
  L 263.22 148.50
  Q 263.73 148.50 264.03 148.08
  L 291.07 110.20
  Q 291.50 109.60 291.50 110.33"
/>
<path stroke="#979797" vector-effect="non-scaling-stroke" d="
  M 208.25 203.06
  A 0.56 0.56 0.0 0 0 207.69 202.50
  L 165.85 202.50
  A 0.56 0.56 0.0 0 0 165.29 203.06
  L 165.29 274.44
  A 0.56 0.56 0.0 0 0 165.85 275.00
  L 207.69 275.00
  A 0.56 0.56 0.0 0 0 208.25 274.44
  L 208.25 203.06"
/>
<path stroke="#979797" vector-effect="non-scaling-stroke" d="
  M 290.55 202.73
  Q 264.14 201.99 237.84 202.69
  C 230.07 202.90 220.28 202.16 211.49 202.61
  Q 210.88 202.64 211.23 203.14
  Q 223.85 220.77 236.43 238.44
  C 237.28 239.64 237.87 239.63 239.25 239.57
  C 241.09 239.50 265.00 239.67 265.48 238.99
  Q 278.20 221.19 290.87 203.37
  Q 291.31 202.75 290.55 202.73"
/>
<path stroke="#979797" vector-effect="non-scaling-stroke" d="
  M 336.75 202.88
  A 0.34 0.34 0.0 0 0 336.41 202.54
  L 294.33 202.54
  A 0.34 0.34 0.0 0 0 293.99 202.88
  L 293.99 274.66
  A 0.34 0.34 0.0 0 0 294.33 275.00
  L 336.41 275.00
  A 0.34 0.34 0.0 0 0 336.75 274.66
  L 336.75 202.88"
/>
<path stroke="#979797" vector-effect="non-scaling-stroke" d="
  M 256.43 328.84
  C 305.49 335.70 313.58 403.15 269.00 421.53
  Q 268.50 421.74 268.50 422.28
  L 268.50 460.24
  Q 268.50 460.77 269.02 460.63
  C 319.55 447.05 343.87 399.11 330.58 349.77
  C 322.13 318.44 297.50 297.25 265.92 291.31
  C 216.55 282.02 169.95 309.21 161.93 360.04
  C 154.96 404.20 176.42 445.88 220.22 460.04
  Q 223.24 461.02 227.25 461.71
  Q 227.76 461.80 227.76 461.28
  L 227.74 423.21
  Q 227.74 422.70 227.26 422.51
  C 203.94 413.47 192.50 388.60 197.81 365.31
  C 204.13 337.59 229.78 325.12 256.43 328.84"
/>
</g>
<path fill="#2e2e2e" d="
  M 0.00 0.00
  L 500.00 0.00
  L 500.00 500.00
  L 0.00 500.00
  L 0.00 0.00
  Z
  M 291.50 110.33
  L 291.50 182.50
  A 0.50 0.50 0.0 0 0 292.00 183.00
  L 331.84 183.00
  Q 333.17 183.00 333.17 181.66
  L 333.28 38.01
  Q 333.28 37.50 332.76 37.50
  L 299.72 37.50
  Q 299.08 37.50 298.72 38.02
  L 250.24 106.35
  A 0.28 0.27 -44.6 0 1 249.79 106.35
  L 201.39 37.84
  Q 201.16 37.50 200.74 37.50
  L 167.42 37.50
  Q 166.90 37.50 166.90 38.02
  L 166.88 182.31
  Q 166.88 183.00 167.56 183.00
  L 208.00 183.00
  Q 208.50 183.00 208.50 182.50
  L 208.50 109.99
  Q 208.50 109.34 208.88 109.87
  L 236.19 148.08
  Q 236.50 148.50 237.02 148.50
  L 263.22 148.50
  Q 263.73 148.50 264.03 148.08
  L 291.07 110.20
  Q 291.50 109.60 291.50 110.33
  Z
  M 208.25 203.06
  A 0.56 0.56 0.0 0 0 207.69 202.50
  L 165.85 202.50
  A 0.56 0.56 0.0 0 0 165.29 203.06
  L 165.29 274.44
  A 0.56 0.56 0.0 0 0 165.85 275.00
  L 207.69 275.00
  A 0.56 0.56 0.0 0 0 208.25 274.44
  L 208.25 203.06
  Z
  M 290.55 202.73
  Q 264.14 201.99 237.84 202.69
  C 230.07 202.90 220.28 202.16 211.49 202.61
  Q 210.88 202.64 211.23 203.14
  Q 223.85 220.77 236.43 238.44
  C 237.28 239.64 237.87 239.63 239.25 239.57
  C 241.09 239.50 265.00 239.67 265.48 238.99
  Q 278.20 221.19 290.87 203.37
  Q 291.31 202.75 290.55 202.73
  Z
  M 336.75 202.88
  A 0.34 0.34 0.0 0 0 336.41 202.54
  L 294.33 202.54
  A 0.34 0.34 0.0 0 0 293.99 202.88
  L 293.99 274.66
  A 0.34 0.34 0.0 0 0 294.33 275.00
  L 336.41 275.00
  A 0.34 0.34 0.0 0 0 336.75 274.66
  L 336.75 202.88
  Z
  M 256.43 328.84
  C 305.49 335.70 313.58 403.15 269.00 421.53
  Q 268.50 421.74 268.50 422.28
  L 268.50 460.24
  Q 268.50 460.77 269.02 460.63
  C 319.55 447.05 343.87 399.11 330.58 349.77
  C 322.13 318.44 297.50 297.25 265.92 291.31
  C 216.55 282.02 169.95 309.21 161.93 360.04
  C 154.96 404.20 176.42 445.88 220.22 460.04
  Q 223.24 461.02 227.25 461.71
  Q 227.76 461.80 227.76 461.28
  L 227.74 423.21
  Q 227.74 422.70 227.26 422.51
  C 203.94 413.47 192.50 388.60 197.81 365.31
  C 204.13 337.59 229.78 325.12 256.43 328.84
  Z"
/>
<path fill="#ffffff" d="
  M 291.07 110.20
  L 264.03 148.08
  Q 263.73 148.50 263.22 148.50
  L 237.02 148.50
  Q 236.50 148.50 236.19 148.08
  L 208.88 109.87
  Q 208.50 109.34 208.50 109.99
  L 208.50 182.50
  Q 208.50 183.00 208.00 183.00
  L 167.56 183.00
  Q 166.88 183.00 166.88 182.31
  L 166.90 38.02
  Q 166.90 37.50 167.42 37.50
  L 200.74 37.50
  Q 201.16 37.50 201.39 37.84
  L 249.79 106.35
  A 0.28 0.27 -44.6 0 0 250.24 106.35
  L 298.72 38.02
  Q 299.08 37.50 299.72 37.50
  L 332.76 37.50
  Q 333.28 37.50 333.28 38.01
  L 333.17 181.66
  Q 333.17 183.00 331.84 183.00
  L 292.00 183.00
  A 0.50 0.50 0.0 0 1 291.50 182.50
  L 291.50 110.33
  Q 291.50 109.60 291.07 110.20
  Z"
/>
<rect fill="#ffffff" x="165.29" y="202.50" width="42.96" height="72.50" rx="0.56"/>
<path fill="#ffffff" d="
  M 290.87 203.37
  Q 278.20 221.19 265.48 238.99
  C 265.00 239.67 241.09 239.50 239.25 239.57
  C 237.87 239.63 237.28 239.64 236.43 238.44
  Q 223.85 220.77 211.23 203.14
  Q 210.88 202.64 211.49 202.61
  C 220.28 202.16 230.07 202.90 237.84 202.69
  Q 264.14 201.99 290.55 202.73
  Q 291.31 202.75 290.87 203.37
  Z"
/>
<rect fill="#ffffff" x="293.99" y="202.54" width="42.76" height="72.46" rx="0.34"/>
<path fill="#ffffff" d="
  M 256.43 328.84
  C 229.78 325.12 204.13 337.59 197.81 365.31
  C 192.50 388.60 203.94 413.47 227.26 422.51
  Q 227.74 422.70 227.74 423.21
  L 227.76 461.28
  Q 227.76 461.80 227.25 461.71
  Q 223.24 461.02 220.22 460.04
  C 176.42 445.88 154.96 404.20 161.93 360.04
  C 169.95 309.21 216.55 282.02 265.92 291.31
  C 297.50 297.25 322.13 318.44 330.58 349.77
  C 343.87 399.11 319.55 447.05 269.02 460.63
  Q 268.50 460.77 268.50 460.24
  L 268.50 422.28
  Q 268.50 421.74 269.00 421.53
  C 313.58 403.15 305.49 335.70 256.43 328.84
  Z"
/>
</svg>
