<svg xmlns="http://www.w3.org/2000/svg" width="500" height="500" viewBox="0 0 500 500" version="1.1"><path d="M 167 110.500 C 167 183, 167 183, 187.500 183 C 208 183, 208 183, 208 145.800 C 208 116.051, 208.250 108.846, 209.250 109.830 C 209.938 110.506, 216.369 119.259, 223.543 129.280 C 243.426 157.054, 257.274 156.791, 277.500 128.253 C 291.500 108.500, 291.500 108.500, 291.762 145.750 C 292.024 183, 292.024 183, 312.512 183 C 333 183, 333 183, 333 110.500 C 333 18.300, 319.597 9.516, 275.014 72.500 C 261.583 91.475, 250.333 107, 250.014 107 C 249.695 107, 238.491 91.475, 225.116 72.500 C 180.639 9.402, 167 18.320, 167 110.500 M 166 239 C 166 275, 166 275, 187 275 C 208 275, 208 275, 208 239 C 208 203, 208 203, 187 203 C 166 203, 166 203, 166 239 M 216.682 209.791 C 239.649 242.163, 235.919 239, 251.123 239 C 264.816 239, 272.523 231.996, 289.360 204.250 C 289.961 203.258, 282.030 203, 250.991 203 C 211.864 203, 211.864 203, 216.682 209.791 M 294 239 C 294 275, 294 275, 315 275 C 336 275, 336 275, 336 239 C 336 203, 336 203, 315 203 C 294 203, 294 203, 294 239 M 233.500 290.924 C 181.016 299.473, 151.365 345.625, 164.053 399.016 C 171.119 428.752, 203.443 461, 226.182 461 C 230.866 461, 226.456 423.218, 221.467 420.611 C 168.434 392.900, 203.827 314.260, 262.458 329.531 C 304.427 340.463, 312.058 403.047, 273.501 420.103 C 267.747 422.648, 266.047 460.765, 271.750 459.361 C 374.961 433.944, 338.595 273.803, 233.500 290.924" stroke="none" fill="#ffffff" fill-rule="evenodd"/><path d="M 167 110.500 C 167 183, 167 183, 187.500 183 C 208 183, 208 183, 208 145.800 C 208 116.051, 208.250 108.846, 209.250 109.830 C 209.938 110.506, 216.369 119.259, 223.543 129.280 C 243.426 157.054, 257.274 156.791, 277.500 128.253 C 291.500 108.500, 291.500 108.500, 291.762 145.750 C 292.024 183, 292.024 183, 312.512 183 C 333 183, 333 183, 333 110.500 C 333 18.300, 319.597 9.516, 275.014 72.500 C 261.583 91.475, 250.333 107, 250.014 107 C 249.695 107, 238.491 91.475, 225.116 72.500 C 180.639 9.402, 167 18.320, 167 110.500 M 166 239 C 166 275, 166 275, 187 275 C 208 275, 208 275, 208 239 C 208 203, 208 203, 187 203 C 166 203, 166 203, 166 239 M 216.682 209.791 C 239.649 242.163, 235.919 239, 251.123 239 C 264.816 239, 272.523 231.996, 289.360 204.250 C 289.961 203.258, 282.030 203, 250.991 203 C 211.864 203, 211.864 203, 216.682 209.791 M 294 239 C 294 275, 294 275, 315 275 C 336 275, 336 275, 336 239 C 336 203, 336 203, 315 203 C 294 203, 294 203, 294 239 M 233.500 290.924 C 181.016 299.473, 151.365 345.625, 164.053 399.016 C 171.119 428.752, 203.443 461, 226.182 461 C 230.866 461, 226.456 423.218, 221.467 420.611 C 168.434 392.900, 203.827 314.260, 262.458 329.531 C 304.427 340.463, 312.058 403.047, 273.501 420.103 C 267.747 422.648, 266.047 460.765, 271.750 459.361 C 374.961 433.944, 338.595 273.803, 233.500 290.924" stroke="none" fill="#ffffff" fill-rule="evenodd"/><path d="" stroke="none" fill="#fbfbfb" fill-rule="evenodd"/></svg>